HIERARCHY
ROOT HipCenter
{
    OFFSET 0.0 0.0 -0.0
    CHANNELS 6 Xposition Yposition Zposition Zrotation Xrotation Yrotation
    JOINT Spine
    {
        OFFSET 0.0 0.12094064801931381 0.0
        CHANNELS 3 Zrotation Xrotation Yrotation
        JOINT ShoulderCenter
        {
            OFFSET 0.0 0.33486852049827576 0.0
            CHANNELS 3 Zrotation Xrotation Yrotation
            JOINT LeftShoulder
            {
                OFFSET 0.1904914677143097 0.0 0.0
                CHANNELS 3 Zrotation Xrotation Yrotation
                JOINT LeftElbow
                {
                    OFFSET 0.2975093722343445 0.0 0.0
                    CHANNELS 3 Zrotation Xrotation Yrotation
                    JOINT LeftWrist
                    {
                        OFFSET 0.2960464656352997 0.0 0.0
                        CHANNELS 3 Zrotation Xrotation Yrotation
                        JOINT LeftHand
                        {
                            OFFSET 0.04403996095061302 0.0 0.0
                            CHANNELS 3 Zrotation Xrotation Yrotation
                            End Site
                            {
                                OFFSET 0.01761598512530327 0.0 0.0
                            }
                        }
                    }
                }
            }
            JOINT RightShoulder
            {
                OFFSET -0.1904914677143097 0.0 0.0
                CHANNELS 3 Zrotation Xrotation Yrotation
                JOINT RightElbow
                {
                    OFFSET -0.2975093722343445 0.0 0.0
                    CHANNELS 3 Zrotation Xrotation Yrotation
                    JOINT RightWrist
                    {
                        OFFSET -0.2960464656352997 0.0 0.0
                        CHANNELS 3 Zrotation Xrotation Yrotation
                        JOINT RightHand
                        {
                            OFFSET -0.04403996095061302 0.0 0.0
                            CHANNELS 3 Zrotation Xrotation Yrotation
                            End Site
                            {
                                OFFSET -0.01761598512530327 0.0 0.0
                            }
                        }
                    }
                }
            }
            End Site
            {
                OFFSET 0.0 0.13394738733768463 0.0
            }
        }
    }
    JOINT LeftHip
    {
        OFFSET 0.13976800441741943 0.0 0.0
        CHANNELS 3 Zrotation Xrotation Yrotation
        JOINT LeftKnee
        {
            OFFSET 0.0 -0.40651530027389526 0.0
            CHANNELS 3 Zrotation Xrotation Yrotation
            JOINT LeftAnkle
            {
                OFFSET 0.0 -0.44772323966026306 0.0
                CHANNELS 3 Zrotation Xrotation Yrotation
                JOINT LeftFoot
                {
                    OFFSET 0.0 -0.10068432986736298 0.0
                    CHANNELS 3 Zrotation Xrotation Yrotation
                    End Site
                    {
                        OFFSET 0.0 0.0 0.04027373343706131
                    }
                }
            }
        }
    }
    JOINT RightHip
    {
        OFFSET -0.13976800441741943 0.0 0.0
        CHANNELS 3 Zrotation Xrotation Yrotation
        JOINT RightKnee
        {
            OFFSET 0.0 -0.40651530027389526 0.0
            CHANNELS 3 Zrotation Xrotation Yrotation
            JOINT RightAnkle
            {
                OFFSET 0.0 -0.44772323966026306 0.0
                CHANNELS 3 Zrotation Xrotation Yrotation
                JOINT RightFoot
                {
                    OFFSET 0.0 -0.10068432986736298 0.0
                    CHANNELS 3 Zrotation Xrotation Yrotation
                    End Site
                    {
                        OFFSET 0.0 0.0 0.04027373343706131
                    }
                }
            }
        }
    }
}
MOTION
Frames: 4
Frame Time: 0.03333333333333333
0.6800000071525574 0.03099999949336052 1.5549999475479126 -0.4735019841249132 2.8387109832639412 178.19953494841695 -0.9069101892763982 -8.033876764635394 0.33601585405057127 -4.229618851839553e-08 1.9995158170839817e-07 5.896252769082674 92.24478797359016 -25.403725380259566 174.00439128330098 -1.2355321207674365e-06 -1.0343662441463907e-06 21.24218140169402 2.674343936306384e-09 -1.0820104760288856 10.79031582317038 6.3611093629270335e-15 1.7655625192200634e-31 3.1805546814635168e-15 -90.53270244980811 -16.306718040289145 -162.46579094759576 6.607793776462009e-06 1.3091016299749448e-06 -27.167233572586003 -179.99999884739785 -40.250967007607954 136.41799830548536 -1.5902773407317584e-15 -6.3611093629270335e-15 -3.1805546814635168e-15 0.08354442262359255 9.154452330755326 -43.086241259821094 -2.2168296837169366 2.6509736484189887 -2.9211206272799326 81.80945091225529 -52.15731738922025 136.28278382609753 0.0 0.0 3.1805546814635164e-15 2.068553495064495 10.725990821387553 36.24916072641365 0.8262789792690649 1.360672684983014 1.183061463881077 -75.97184090215444 -44.59108050672144 -125.93656128453792 0.0 0.0 0.0
0.6809999942779541 0.03200000151991844 1.5570000410079956 -0.4735020070289621 2.366165185269597 178.96354395960194 -1.3538296413949704 -8.299396790242241 0.2730374066649877 -3.591178074407034e-09 -9.687709441397729e-08 4.970382740082229 92.16622666334398 -27.707588065752965 173.0498677853139 -4.853371889681113e-06 -3.2307527622671517e-06 21.168788630643625 -2.131299225565104e-06 -18.461155660621085 11.605225591227375 6.3611093629270335e-15 -1.5902773407317584e-15 8.827812596100317e-32 -90.58239616982891 -16.34282616529053 -162.9039359295752 -6.445487706958911e-06 1.0954317371461471e-07 -26.313261377843865 -179.99999587955017 -41.75931416971922 136.04724315913748 1.7655625192200634e-31 -6.3611093629270335e-15 3.1805546814635168e-15 0.3639854184621777 8.264890246357103 -42.23463704535641 -2.5412288931121694 2.9390069151971407 -3.1952844748122544 77.69270707686788 -52.661897096056954 131.41755180739534 0.0 0.0 -3.1805546814635168e-15 2.5034091581435813 10.368288240272108 36.112576007538756 0.6192189589176351 1.3116157999607803 1.1271258652571947 -91.27977724962977 -44.40072799270256 -142.09861766688067 3.1805546814635164e-15 -6.3611093629270335e-15 -6.3611093629270335e-15
0.6809999942779541 0.03400000184774399 1.5579999685287476 5.112478923694706e-10 1.8934178209160324 179.2467009435402 -1.0956018825003015 -8.792023148460684 -0.04445765652767957 -1.606229472981934e-08 3.4825511277477683e-07 5.125368493357415 92.3279284566085 -27.342034074079976 172.8547131913683 2.4105906692377727e-07 7.733834978885573e-07 20.599191141072815 -3.3034934008048587e-06 -21.514815554670346 13.090275413234517 6.3611093629270335e-15 -3.1805546814635168e-15 -3.1805546814635168e-15 -90.75966523472701 -15.438812370868604 -162.73992798735298 -1.0357814532066522e-06 -1.6016176309143914e-06 -26.200449991270716 179.9999983003103 -40.274651777707895 135.67969284917584 -1.5902773407317584e-15 -4.4139062980501586e-32 3.1805546814635168e-15 0.324641694268644 7.511139225212656 -39.998854643910846 -2.7046639153419534 3.4623177016350835 -3.5323149976491304 77.48276270210285 -54.064440323682554 128.7348804648032 0.0 0.0 0.0 2.459012682501893 9.886330399165672 38.14212050942585 0.707009196553815 1.258278466869847 1.1562578146066502 -91.75208682359 -42.0782714224386 -145.54607802806373 -3.1805546814635168e-15 6.361109362927033e-15 9.541664044390549e-15
0.6809999942779541 0.03400000184774399 1.5579999685287476 -1.0528945092630852e-09 1.8934176284979407 179.2545059209951 -1.0968089212135725 -8.791874045912172 0.01612701896295003 -7.625942958580209e-08 -5.243033477166957e-07 4.9077345916986435 92.3750318774819 -27.66816886405431 172.61729392387892 9.823125107281294e-06 2.6153919241862134e-07 20.181626603513777 -6.687744657199618e-06 -21.214074687551562 13.738952221395161 0.0 0.0 0.0 -91.15233905110863 -14.364764365591693 -162.84331947468817 -6.404127397626718e-07 1.2443874423848156e-06 -25.57070493417871 -179.99999227261165 -41.41544131125922 136.5217953063934 0.0 6.361109362927035e-15 0.0 0.6082479119185907 7.5144107835523455 -41.128087873157874 -2.7069575375107005 3.29973763443443 -3.476800829715919 78.24518086215322 -53.26774795582493 130.81887776684218 -3.1805546814635168e-15 -6.3611093629270335e-15 -3.1805546814635168e-15 2.6123260487873896 9.765765010668579 37.59155240447669 0.933611230232096 1.3960243456000367 1.260209952499583 -92.8352126776025 -42.56376170752955 -145.83253964140673 -3.1805546814635168e-15 6.3611093629270335e-15 3.1805546814635168e-15
